<svg width="854" height="750" viewBox="0 0 854 750" fill="none" xmlns="http://www.w3.org/2000/svg">
<g clip-path="url(#clip0_903_660)">
<path d="M568.433 499.123C604.883 864.871 744.771 815.665 848.999 298.682C876.423 162.656 788.122 30.3512 657.867 4.45211C527.611 -21.447 401.997 68.2935 377.301 204.893C352.605 341.493 554.653 360.843 568.433 499.123Z" fill="#F2F2F2"/>
<path d="M117.188 613.925C117.188 660.202 90.9549 676.361 58.5942 676.361C26.2335 676.361 0 660.202 0 613.925C0 567.648 58.5942 508.775 58.5942 508.775C58.5942 508.775 117.188 567.648 117.188 613.925Z" fill="#F2F2F2"/>
<path d="M56.4561 669.282L57.0567 630.552L82.0308 582.638L57.15 624.476L57.4205 607.061L74.6328 572.396L57.4919 602.453L57.9763 571.132L76.408 543.534L58.0531 566.207L58.3566 508.775L56.4507 584.804L56.6079 581.669L37.8682 551.588L56.3071 587.689L54.5611 622.669L54.509 621.74L32.9062 590.086L54.4432 625.021L54.2257 629.395L54.1863 629.461L54.2037 629.82L49.7738 718.567H55.6928L56.4031 672.728L77.888 637.878L56.4561 669.282Z" fill="#F2F2F2"/>
<path d="M117.188 613.925C117.188 660.202 90.9549 676.361 58.5942 676.361C26.2335 676.361 0 660.202 0 613.925C0 567.648 58.5942 508.775 58.5942 508.775C58.5942 508.775 117.188 567.648 117.188 613.925Z" fill="#F2F2F2"/>
<path d="M56.4561 669.282L57.0567 630.552L82.0308 582.638L57.15 624.476L57.4205 607.061L74.6328 572.396L57.4919 602.453L57.9763 571.132L76.408 543.534L58.0531 566.207L58.3566 508.775L56.4507 584.804L56.6079 581.669L37.8682 551.588L56.3071 587.689L54.5611 622.669L54.509 621.74L32.9062 590.086L54.4432 625.021L54.2257 629.395L54.1863 629.461L54.2037 629.82L49.7738 718.567H55.6928L56.4031 672.728L77.888 637.878L56.4561 669.282Z" fill="#3F3D56"/>
<path d="M427.079 749.999C661.335 749.999 851.237 736.909 851.237 720.76C851.237 704.612 661.335 691.521 427.079 691.521C192.824 691.521 2.92188 704.612 2.92188 720.76C2.92188 736.909 192.824 749.999 427.079 749.999Z" fill="#3F3D56"/>
<path opacity="0.1" d="M197.633 736.579C256.197 736.579 303.673 727.861 303.673 717.107C303.673 706.353 256.197 697.635 197.633 697.635C139.069 697.635 91.5938 706.353 91.5938 717.107C91.5938 727.861 139.069 736.579 197.633 736.579Z" fill="black"/>
<path opacity="0.1" d="M641.899 738.496C700.463 738.496 747.938 730.985 747.938 721.72C747.938 712.454 700.463 704.943 641.899 704.943C583.335 704.943 535.859 712.454 535.859 721.72C535.859 730.985 583.335 738.496 641.899 738.496Z" fill="black"/>
<path d="M215.773 371.859L247.161 373.125C247.161 373.125 274.926 387.051 274.926 398.445C274.926 409.839 242.332 385.785 242.332 385.785L215.773 384.519L215.773 371.859Z" fill="#FFB9B9"/>
<path opacity="0.1" d="M215.773 371.859L247.161 373.125C247.161 373.125 274.926 387.051 274.926 398.445C274.926 409.839 242.332 385.785 242.332 385.785L215.773 384.519L215.773 371.859Z" fill="black"/>
<path d="M216.978 361.73C216.978 361.73 223.014 376.922 221.807 384.518C220.6 392.114 174.727 389.582 174.727 389.582L181.97 366.794L216.978 361.73Z" fill="#FFB9B9"/>
<path d="M173.516 636.451L171.102 670.633L191.624 671.898L195.245 638.983L173.516 636.451Z" fill="#FFB9B9"/>
<path d="M173.519 381.986L168.69 394.646C168.69 394.646 157.825 406.04 160.24 433.892C162.654 461.744 163.861 463.01 163.861 463.01C163.861 463.01 154.204 638.983 162.654 640.249C171.104 641.515 218.185 665.568 223.014 637.717C227.843 609.865 230.257 497.192 230.257 497.192L174.726 392.114L173.519 381.986Z" fill="#2F2E41"/>
<path opacity="0.1" d="M173.519 381.986L168.69 394.646C168.69 394.646 157.825 406.04 160.24 433.892C162.654 461.744 163.861 463.01 163.861 463.01C163.861 463.01 154.204 638.983 162.654 640.249C171.104 641.515 218.185 665.568 223.014 637.717C227.843 609.865 230.257 497.192 230.257 497.192L174.726 392.114L173.519 381.986Z" fill="black"/>
<path d="M227.841 616.196L216.977 632.654L235.085 640.249L250.778 613.664L227.841 616.196Z" fill="#FFB9B9"/>
<path d="M216.976 264.249C232.311 264.249 244.742 251.213 244.742 235.131C244.742 219.05 232.311 206.014 216.976 206.014C201.642 206.014 189.211 219.05 189.211 235.131C189.211 251.213 201.642 264.249 216.976 264.249Z" fill="#FFB9B9"/>
<path d="M195.25 225.004C195.25 225.004 171.106 251.59 163.863 252.856C156.62 254.122 189.214 275.644 189.214 275.644V268.048C189.214 268.048 200.079 256.654 206.115 255.388C212.151 254.122 195.25 225.004 195.25 225.004Z" fill="#FFB9B9"/>
<path d="M175.934 375.656L168.69 394.646C168.69 394.646 154.204 432.626 174.726 452.882C195.249 473.138 254.401 536.437 251.987 550.363C249.573 564.289 213.79 613.513 225.042 619.918C236.293 626.323 359.427 603.535 360.635 588.343C361.087 582.646 356.617 571.608 350.852 560.036C339.969 538.346 326.575 518.148 310.974 499.899L229.05 403.508C229.05 403.508 220.6 384.518 223.014 380.72C223.014 380.72 213.357 370.592 184.384 378.188L175.934 375.656Z" fill="#2F2E41"/>
<path d="M169.896 666.834C169.896 666.834 163.86 687.09 161.446 688.356C159.031 689.622 156.617 703.548 159.031 706.08C161.446 708.612 162.653 720.006 162.653 720.006H165.067L166.275 707.346C166.275 707.346 191.285 723.181 195.247 725.07C201.887 728.235 231.463 727.602 230.256 721.272C229.049 714.942 194.04 694.686 195.247 689.622C196.454 684.558 192.833 669.366 192.833 669.366L169.896 666.834Z" fill="#2F2E41"/>
<path d="M238.704 638.983L214.56 628.855C214.56 628.855 208.524 638.983 201.28 638.983C194.037 638.983 188.407 648.191 188.808 648.651C189.209 649.111 178.344 664.303 178.344 664.303L180.294 667.983L194.037 659.239L197.889 676.204C200.008 685.784 204.182 694.731 210.092 702.366C214.828 708.41 220.73 713.536 226.632 712.411C226.632 712.411 229.046 712.411 226.632 694.687C224.217 676.963 229.046 657.973 229.046 657.973L238.704 638.983Z" fill="#2F2E41"/>
<path d="M175.936 251.59C175.936 251.59 178.35 257.92 180.764 259.186C183.179 260.452 190.422 265.516 191.629 270.58C192.836 275.644 198.872 290.836 198.872 290.836C198.872 290.836 212.152 298.432 210.944 312.358C209.737 326.284 208.53 337.678 210.944 338.944C213.359 340.21 215.773 340.21 214.566 344.008C213.359 347.806 216.98 351.604 218.188 352.87C219.395 354.135 221.809 351.604 219.395 355.402C216.98 359.199 218.188 360.465 219.395 361.731C220.602 362.998 221.809 362.997 220.602 365.529C219.395 368.061 174.729 384.519 172.314 384.519C169.9 384.519 169.9 381.987 171.107 378.189C172.314 374.391 177.143 370.593 172.314 369.327C167.485 368.061 166.278 368.061 166.278 361.731C166.278 355.401 145.756 317.422 145.756 317.422C145.756 317.422 137.305 288.304 145.756 275.644C154.206 262.984 160.242 254.122 165.071 251.59C169.9 249.058 175.936 251.59 175.936 251.59Z" fill="#FF6938"/>
<path d="M136.095 311.092L121.609 352.87L92.6358 442.755C92.6358 442.755 62.4559 487.065 82.9782 484.533C103.501 482.001 105.915 442.755 105.915 442.755L133.68 373.125L159.032 319.954L136.095 311.092Z" fill="#FFB9B9"/>
<path d="M150.585 274.377L145.757 275.643C145.757 275.643 128.856 311.091 132.478 314.889C136.099 318.687 155.414 328.815 159.036 327.549C162.657 326.283 167.486 289.569 167.486 289.569L150.585 274.377Z" fill="#FF6938"/>
<path d="M152.006 224.078C161.372 219.759 172.706 210.304 183.468 202.502C186.956 199.973 190.353 197.32 193.732 194.634C200.543 189.22 216.934 187.343 231.081 196.855C247.251 207.728 255.141 225.076 250.764 232.235C247.145 238.155 235.131 237.117 221.939 230.437C220.085 243.397 215.844 256.313 211.211 263.89C200.728 281.035 191.909 264.871 175.56 253.877C159.21 242.883 134.227 232.276 152.006 224.078Z" fill="#2F2E41"/>
<path d="M371.317 515.13C402.113 515.13 427.079 488.948 427.079 456.652C427.079 424.355 402.113 398.174 371.317 398.174C340.52 398.174 315.555 424.355 315.555 456.652C315.555 488.948 340.52 515.13 371.317 515.13Z" fill="#FF6938"/>
<path d="M641.902 151.799V259.847L646.473 257.251V269.713L651.958 285.052C651.958 285.052 657.443 285.052 657.443 287.928C657.443 290.804 651.958 295.597 651.958 295.597H641.902V346.572L648.301 331.067H660.185L668.412 348.323C668.412 348.323 662.927 350.24 662.927 354.075C662.927 357.91 669.326 365.579 668.412 370.372C667.498 375.165 663.842 382.835 661.099 385.71L649.215 398.173H641.902V732.743H694.922V151.799H641.902Z" fill="#3F3D56"/>
<path d="M611.735 402.968L625.447 395.299C625.447 395.299 629.104 409.679 625.447 412.555C621.791 415.431 604.422 423.1 604.422 423.1L615.392 434.604H598.023L611.735 402.968Z" fill="#3F3D56"/>
<path d="M577.574 724.045L581.954 726.568C581.954 726.568 576.112 729.596 574.589 729.043C573.066 728.489 568.391 724.999 568.391 724.999L564.367 729.547L562.965 724.958L577.574 724.045Z" fill="#3F3D56"/>
<path d="M590.272 717.851C590.272 717.851 575.479 708.116 588.377 710.443C596.292 711.846 604.339 712.249 612.345 711.643L614.239 719.05L590.272 717.851Z" fill="#3F3D56"/>
<path d="M608.943 732.52C608.943 732.52 595.215 729.301 605.866 727.48C612.425 726.332 618.84 724.41 624.986 721.748L628.063 726.788L608.943 732.52Z" fill="#3F3D56"/>
<path d="M612.648 475.824V470.072H627.275V488.287L612.648 475.824Z" fill="#3F3D56"/>
</g>
<defs>
<clipPath id="clip0_903_660">
<rect width="854" height="750" fill="white"/>
</clipPath>
</defs>
</svg>
